<?xml version="1.0" standalone="no"?>
<!DOCTYPE svg PUBLIC "-//W3C//DTD SVG 20010904//EN"
 "http://www.w3.org/TR/2001/REC-SVG-20010904/DTD/svg10.dtd">
<svg version="1.0" xmlns="http://www.w3.org/2000/svg"
 width="324.000000pt" height="208.000000pt" viewBox="0 0 324.000000 208.000000"
 preserveAspectRatio="xMidYMid meet">

<g transform="translate(0.000000,208.000000) scale(0.100000,-0.100000)"
fill="#000000" stroke="none">
<path d="M2427 2072 c-22 -4 -22 -39 -1 -44 9 -2 41 -1 72 1 38 2 51 6 41 12
-9 6 0 7 26 3 51 -8 57 -14 17 -14 -18 0 -32 -4 -32 -9 0 -5 20 -9 46 -9 30 1
41 4 32 10 -8 6 -2 7 17 3 17 -4 32 -11 33 -16 2 -5 8 -9 14 -9 6 0 8 6 5 14
-7 19 28 26 108 24 33 -2 52 -4 43 -6 -30 -6 -21 -33 10 -31 15 1 38 -3 52 -8
15 -6 42 -7 65 -3 l40 8 -45 2 c-34 2 -38 4 -15 7 17 2 40 9 53 15 16 9 25 9
30 2 4 -6 32 -14 62 -18 30 -4 51 -4 47 0 -4 4 -1 14 6 22 9 12 9 16 -1 19 -6
3 -9 9 -6 15 4 7 -2 8 -17 3 -13 -4 -25 -12 -27 -16 -6 -15 -27 -10 -42 11
-16 23 -38 25 -75 8 -21 -9 -28 -9 -35 1 -6 11 -15 11 -40 2 -41 -14 -53 -14
-45 -1 4 6 -31 10 -97 9 -67 0 -96 -3 -83 -9 18 -8 17 -9 -8 -9 -16 -1 -26 3
-23 7 5 8 -189 11 -227 4z m546 -39 c-7 -2 -19 -2 -25 0 -7 3 -2 5 12 5 14 0
19 -2 13 -5z"/>
<path d="M222 2008 c-1 -14 -5 -35 -8 -45 -5 -14 -4 -15 5 -7 7 7 11 26 8 45
-3 28 -4 29 -5 7z"/>
<path d="M1227 1994 c-5 -29 19 -46 34 -23 13 21 11 27 -10 38 -16 9 -20 6
-24 -15z m33 -8 c0 -3 -4 -8 -10 -11 -5 -3 -10 -1 -10 4 0 6 5 11 10 11 6 0
10 -2 10 -4z"/>
<path d="M1286 1994 c-4 -14 -5 -29 -2 -31 3 -3 8 7 12 21 3 15 4 29 1 32 -2
3 -8 -7 -11 -22z"/>
<path d="M1963 2013 c-20 -7 -15 -19 7 -19 11 0 20 6 20 13 0 14 -6 15 -27 6z"/>
<path d="M2460 2010 c0 -5 9 -10 19 -10 11 0 21 -5 23 -11 5 -14 38 0 38 17 0
10 -12 14 -40 14 -22 0 -40 -4 -40 -10z"/>
<path d="M173 2003 c-22 -8 -15 -43 7 -43 13 0 20 7 20 19 0 22 -9 30 -27 24z
m9 -25 c-7 -7 -12 -8 -12 -2 0 14 12 26 19 19 2 -3 -1 -11 -7 -17z"/>
<path d="M1650 2000 c0 -5 5 -10 11 -10 5 0 7 5 4 10 -3 6 -8 10 -11 10 -2 0
-4 -4 -4 -10z"/>
<path d="M2291 1996 c-13 -16 -7 -36 11 -36 7 0 7 5 -1 14 -9 11 -9 15 1 19 7
2 10 7 7 11 -3 4 -12 0 -18 -8z"/>
<path d="M2336 1995 c-3 -9 -6 -22 -5 -28 0 -7 5 -1 10 12 5 13 8 26 5 28 -2
2 -6 -3 -10 -12z"/>
<path d="M2585 2000 c-3 -5 1 -10 9 -10 9 0 16 5 16 10 0 6 -4 10 -9 10 -6 0
-13 -4 -16 -10z"/>
<path d="M2010 1990 c0 -5 5 -10 11 -10 5 0 7 5 4 10 -3 6 -8 10 -11 10 -2 0
-4 -4 -4 -10z"/>
<path d="M2410 1986 c0 -9 7 -16 16 -16 9 0 14 5 12 12 -6 18 -28 21 -28 4z"/>
<path d="M2945 1970 c-3 -5 1 -10 9 -10 9 0 16 5 16 10 0 6 -4 10 -9 10 -6 0
-13 -4 -16 -10z"/>
<path d="M3075 1970 c3 -5 21 -10 38 -9 31 1 31 1 7 9 -36 11 -52 11 -45 0z"/>
<path d="M1510 1946 c0 -23 2 -25 20 -14 10 7 18 13 17 13 -1 0 -10 7 -19 14
-16 12 -18 11 -18 -13z"/>
<path d="M1950 1952 c0 -10 7 -18 18 -18 10 0 18 8 18 18 0 11 -8 18 -18 18
-11 0 -18 -7 -18 -18z"/>
<path d="M2508 1963 c7 -3 16 -2 19 1 4 3 -2 6 -13 5 -11 0 -14 -3 -6 -6z"/>
<path d="M2690 1954 c-14 -8 -33 -11 -42 -8 -22 7 -58 -4 -58 -17 0 -5 7 -9
15 -9 8 0 15 5 15 10 0 6 8 10 18 10 13 0 10 -6 -13 -24 -16 -13 -36 -21 -44
-18 -8 3 -12 1 -8 -5 8 -12 -102 -36 -143 -31 -24 3 -25 0 -25 -47 0 -49 0
-50 35 -55 41 -7 98 6 121 26 8 8 23 14 33 14 9 0 15 4 11 9 -3 5 7 18 22 29
71 49 165 55 257 17 33 -13 64 -31 68 -40 5 -8 15 -15 22 -15 7 0 25 -11 39
-24 26 -24 115 -45 137 -31 6 3 10 31 9 61 -2 43 -6 55 -21 60 -11 3 -22 3
-25 0 -4 -3 -1 -6 5 -6 7 0 12 -4 12 -8 0 -4 -18 -8 -40 -7 -22 0 -40 3 -40 8
0 4 -8 7 -17 7 -32 0 9 20 42 20 33 0 63 15 53 25 -3 4 -26 8 -50 11 -34 3
-38 2 -18 -5 24 -9 24 -9 3 -10 -13 -1 -23 -6 -23 -12 0 -6 -19 -9 -47 -7 -27
2 -47 6 -45 11 1 4 -7 16 -18 27 -37 37 -193 58 -240 34z"/>
<path d="M1363 1943 c-3 -8 -2 -17 2 -21 4 -4 10 -1 13 7 4 11 6 11 13 0 10
-17 21 -7 14 13 -7 19 -35 19 -42 1z"/>
<path d="M1450 1940 c0 -5 5 -10 10 -10 6 0 10 5 10 10 0 6 -4 10 -10 10 -5 0
-10 -4 -10 -10z"/>
<path d="M3018 1943 c18 -2 45 -2 60 0 15 2 0 4 -33 4 -33 0 -45 -2 -27 -4z"/>
<path d="M1740 1910 c0 -6 -4 -8 -10 -5 -5 3 -10 1 -10 -6 0 -9 -3 -9 -14 0
-11 9 -15 9 -20 -1 -5 -10 -7 -10 -12 0 -8 17 -24 15 -24 -3 0 -9 -6 -12 -15
-9 -8 4 -15 1 -15 -6 0 -6 -4 -8 -10 -5 -5 3 -10 -4 -10 -16 0 -18 -2 -19 -15
-9 -13 10 -15 9 -15 -10 0 -16 -4 -20 -15 -16 -10 3 -15 -1 -15 -13 0 -21 30
-24 43 -4 4 7 14 10 22 6 11 -4 13 -1 9 11 -5 12 -2 15 10 10 11 -4 16 -1 16
12 0 17 1 16 15 -2 8 -11 15 -14 15 -6 0 6 6 12 14 12 8 0 17 6 20 13 5 9 7 9
12 -1 3 -6 10 -10 15 -6 5 3 9 -1 9 -8 1 -8 6 -6 15 6 13 18 15 18 21 2 5 -14
9 -15 15 -4 7 11 11 10 19 -2 6 -10 10 -11 10 -2 0 6 5 12 10 12 6 0 10 -6 10
-14 0 -9 9 -13 24 -12 14 2 27 -3 30 -11 3 -8 10 -11 16 -8 5 3 10 -2 10 -11
0 -13 3 -15 11 -7 6 6 9 21 7 34 -4 29 -88 75 -100 56 -6 -9 -10 -9 -16 1 -5
7 -20 14 -33 16 -14 1 -30 6 -37 10 -7 4 -12 2 -12 -4z"/>
<path d="M2988 1903 c7 -3 16 -2 19 1 4 3 -2 6 -13 5 -11 0 -14 -3 -6 -6z"/>
<path d="M538 1893 c12 -2 30 -2 40 0 9 3 -1 5 -23 4 -22 0 -30 -2 -17 -4z"/>
<path d="M608 1853 c6 -2 18 -2 25 0 6 3 1 5 -13 5 -14 0 -19 -2 -12 -5z"/>
<path d="M1511 1818 c-1 -10 -8 -18 -16 -18 -8 0 -15 -8 -16 -17 0 -13 -3 -11
-11 7 -9 21 -12 22 -15 7 -5 -18 -5 -18 -19 0 -13 17 -13 17 -14 -2 -1 -17 -3
-17 -12 5 -9 21 -12 22 -15 7 -5 -18 -5 -18 -19 0 -12 16 -13 14 -13 -22 0
-37 1 -39 14 -21 14 19 15 19 15 2 0 -15 3 -16 15 -6 12 10 15 9 15 -6 0 -17
1 -17 15 2 8 10 15 15 15 9 0 -12 50 -14 50 -2 0 5 5 5 10 2 16 -10 24 23 12
48 -9 18 -11 19 -11 5z"/>
<path d="M1950 1800 c0 -20 5 -30 15 -30 8 0 15 -5 15 -11 0 -8 5 -8 15 1 12
10 15 10 15 -4 0 -19 16 -21 23 -3 3 7 6 5 6 -5 1 -19 29 -14 44 6 5 7 10 6
17 -4 7 -12 10 -8 10 15 0 23 -3 27 -10 15 -9 -13 -11 -13 -20 0 -9 13 -11 13
-20 0 -8 -13 -10 -12 -11 5 l0 20 -9 -20 c-7 -19 -8 -19 -15 -2 -6 15 -10 16
-16 5 -6 -9 -9 -9 -9 -1 0 14 -28 43 -41 43 -5 0 -9 -13 -9 -30z"/>
<path d="M2725 1783 c-36 -9 -141 -61 -154 -77 -15 -18 -97 -38 -137 -34 -25
3 -29 -1 -32 -26 -7 -56 5 -76 44 -76 37 0 144 43 144 59 0 5 20 18 45 30 64
30 203 30 260 0 22 -11 45 -27 51 -35 6 -7 26 -20 45 -28 19 -9 30 -16 24 -16
-25 -2 74 -30 108 -30 l37 0 0 55 0 55 -42 0 c-52 0 -124 26 -158 57 -40 37
-186 78 -235 66z"/>
<path d="M1740 1742 c0 -7 -4 -10 -10 -7 -16 10 -12 -35 5 -51 13 -14 16 -14
21 1 5 12 9 13 20 4 11 -9 14 -5 14 22 0 25 -3 30 -12 21 -9 -9 -14 -7 -24 6
-9 11 -13 13 -14 4z"/>
<path d="M1650 1704 c0 -31 2 -35 15 -24 8 6 18 9 24 6 12 -8 22 20 14 40 -5
13 -8 13 -15 2 -7 -10 -11 -10 -15 0 -10 25 -23 11 -23 -24z"/>
<path d="M1620 1713 c0 -15 -2 -16 -10 -3 -7 11 -10 7 -10 -17 0 -26 3 -30 20
-26 14 4 20 14 20 34 0 16 -4 29 -10 29 -5 0 -10 -8 -10 -17z"/>
<path d="M1812 1705 c0 -16 2 -22 5 -12 2 9 2 23 0 30 -3 6 -5 -1 -5 -18z"/>
<path d="M1841 1692 c0 -30 2 -33 9 -17 l9 20 1 -20 1 -20 8 20 c10 24 4 42
-15 49 -11 4 -14 -4 -13 -32z"/>
<path d="M1573 1665 c0 -22 2 -30 4 -17 2 12 2 30 0 40 -3 9 -5 -1 -4 -23z"/>
<path d="M1511 1635 c0 -35 2 -37 11 -19 7 15 7 28 -1 40 -9 16 -10 12 -10
-21z"/>
<path d="M1542 1650 c0 -14 2 -19 5 -12 2 6 2 18 0 25 -3 6 -5 1 -5 -13z"/>
<path d="M1922 1640 c0 -19 2 -27 5 -17 2 9 2 25 0 35 -3 9 -5 1 -5 -18z"/>
<path d="M1420 1605 c0 -36 3 -46 10 -35 5 8 10 24 10 35 0 11 -5 27 -10 35
-7 11 -10 1 -10 -35z"/>
<path d="M1450 1615 c0 -22 4 -34 10 -30 6 3 10 17 10 30 0 13 -4 27 -10 30
-6 4 -10 -8 -10 -30z"/>
<path d="M1950 1618 c0 -19 4 -26 14 -22 8 3 16 -2 19 -13 3 -10 5 1 6 24 1
36 -2 42 -19 40 -15 -1 -20 -8 -20 -29z"/>
<path d="M1360 1600 c0 -25 4 -39 10 -35 6 3 10 19 10 35 0 16 -4 32 -10 35
-6 4 -10 -10 -10 -35z"/>
<path d="M1391 1600 c0 -40 2 -42 11 -22 8 16 8 28 0 45 -9 19 -11 17 -11 -23z"/>
<path d="M1480 1626 c0 -8 5 -18 10 -21 6 -3 10 3 10 14 0 12 -4 21 -10 21 -5
0 -10 -6 -10 -14z"/>
<path d="M2012 1595 c0 -16 2 -22 5 -12 2 9 2 23 0 30 -3 6 -5 -1 -5 -18z"/>
<path d="M2040 1590 c0 -26 3 -31 10 -20 8 13 10 12 10 -2 0 -10 5 -18 10 -18
6 0 10 13 10 29 0 17 -4 33 -10 36 -5 3 -10 0 -10 -7 0 -9 -3 -9 -10 2 -7 11
-10 6 -10 -20z"/>
<path d="M2101 1584 c0 -11 3 -14 6 -6 3 7 2 16 -1 19 -3 4 -6 -2 -5 -13z"/>
<path d="M2641 1561 c-25 -13 -50 -29 -56 -36 -22 -27 -76 -56 -123 -66 -41
-10 -52 -17 -57 -37 -8 -31 4 -132 16 -132 4 0 25 17 46 38 75 76 209 143 280
141 52 -2 133 -22 144 -36 6 -7 18 -13 25 -13 8 0 19 -9 26 -20 7 -11 18 -20
25 -20 7 0 13 -3 13 -7 0 -5 -29 -8 -63 -9 -48 0 -71 -6 -93 -21 -25 -18 -39
-20 -102 -15 -94 6 -189 -19 -198 -53 -3 -13 -16 -28 -30 -35 -13 -7 -26 -21
-30 -32 -3 -10 -16 -21 -30 -24 -21 -5 -24 -12 -24 -49 l0 -42 38 7 c56 11
112 37 112 53 0 25 49 37 150 37 98 0 99 0 112 -27 7 -15 32 -36 56 -48 23
-11 42 -23 42 -27 0 -5 -18 -8 -39 -8 -22 0 -48 -3 -58 -6 -15 -5 -15 -4 -3 5
23 16 -27 14 -134 -6 -69 -13 -99 -23 -123 -44 -24 -21 -48 -30 -93 -35 l-60
-7 0 -69 c0 -66 1 -68 20 -58 11 6 26 10 33 9 11 -2 40 4 139 31 20 6 49 23
64 39 16 17 34 27 44 24 10 -3 21 0 24 6 4 6 20 11 35 11 15 0 31 4 37 10 10
10 54 2 54 -10 0 -5 -8 -11 -17 -13 -10 -3 -4 -5 14 -6 17 0 33 -6 35 -11 2
-6 22 -12 46 -14 32 -4 42 -1 42 10 0 8 2 14 5 14 7 0 49 -24 55 -31 11 -14
50 -29 74 -29 18 0 26 -6 29 -22 2 -13 5 -2 6 23 1 46 0 47 -34 53 -19 4 -35
11 -35 15 0 14 -50 20 -83 10 -16 -5 -35 -5 -41 -1 -6 4 2 9 19 13 l30 7 -28
1 c-16 0 -26 5 -23 9 3 5 -4 18 -14 30 -26 28 -25 32 8 32 19 0 23 -3 13 -9
-10 -7 -5 -11 17 -16 18 -3 36 -4 42 0 5 3 10 1 10 -4 0 -27 117 4 126 32 3
11 3 38 0 61 l-7 43 -51 -8 c-28 -5 -55 -14 -59 -20 -5 -9 -18 -7 -51 8 -23
11 -69 29 -100 38 -58 19 -76 42 -62 79 7 18 90 23 96 7 5 -15 170 -17 206 -2
33 14 33 14 30 79 l-3 65 -55 4 c-63 5 -110 30 -159 85 -61 69 -215 94 -300
49z"/>
<path d="M1650 1515 c0 -22 4 -34 10 -30 6 3 10 17 10 30 0 13 -4 27 -10 30
-6 4 -10 -8 -10 -30z"/>
<path d="M1602 1500 c0 -19 2 -27 5 -17 2 9 2 25 0 35 -3 9 -5 1 -5 -18z"/>
<path d="M1572 1480 c0 -19 2 -27 5 -17 2 9 2 25 0 35 -3 9 -5 1 -5 -18z"/>
<path d="M1511 1454 c0 -11 3 -14 6 -6 3 7 2 16 -1 19 -3 4 -6 -2 -5 -13z"/>
<path d="M1362 1350 c0 -14 2 -19 5 -12 2 6 2 18 0 25 -3 6 -5 1 -5 -13z"/>
<path d="M1921 1354 c0 -11 3 -14 6 -6 3 7 2 16 -1 19 -3 4 -6 -2 -5 -13z"/>
<path d="M1571 1264 c0 -11 3 -14 6 -6 3 7 2 16 -1 19 -3 4 -6 -2 -5 -13z"/>
<path d="M1601 1254 c0 -11 3 -14 6 -6 3 7 2 16 -1 19 -3 4 -6 -2 -5 -13z"/>
<path d="M2745 874 c-40 -21 -66 -45 -59 -55 3 -5 -8 -9 -23 -9 -16 0 -33 -4
-38 -9 -13 -12 -106 -31 -150 -31 -62 0 -65 -4 -65 -91 0 -43 3 -79 6 -79 3 0
25 14 49 30 24 17 50 30 57 30 25 0 92 38 132 74 22 20 36 36 32 36 -4 0 5 12
21 26 23 21 33 24 62 19 33 -6 89 -42 90 -57 1 -3 -7 -8 -16 -10 -13 -3 -9 -7
15 -18 19 -9 32 -22 32 -33 0 -10 7 -20 15 -24 14 -5 13 -7 -3 -19 -13 -9 -61
-14 -149 -16 -139 -3 -155 -9 -168 -59 -7 -29 -65 -69 -99 -69 -14 0 -27 -4
-30 -9 -3 -5 -15 -7 -26 -4 -16 4 -20 0 -20 -21 0 -14 3 -26 8 -26 4 0 12 -11
18 -23 11 -24 0 -67 -18 -67 -4 0 -8 -55 -8 -121 l0 -122 68 6 c37 2 75 8 85
12 13 6 18 1 23 -23 l6 -31 157 -3 c86 -2 195 -1 243 2 74 4 86 7 78 20 -8 12
-13 13 -30 2 -16 -10 -20 -10 -20 2 0 14 -63 31 -79 21 -5 -3 -52 2 -103 11
-51 9 -125 19 -165 23 -72 6 -97 16 -76 29 6 4 15 20 18 35 4 15 13 27 21 27
8 0 14 4 14 9 0 4 32 13 71 20 68 11 73 11 91 -9 11 -11 32 -23 48 -27 16 -3
31 -12 34 -20 4 -9 13 -13 23 -9 9 4 41 4 70 0 42 -5 53 -10 53 -24 0 -20 41
-34 71 -25 14 5 21 0 28 -16 6 -17 10 -5 15 53 4 42 2 86 -3 101 -5 14 -8 27
-6 28 2 2 -20 5 -48 5 -29 1 -79 7 -112 14 -82 16 -266 8 -300 -14 -13 -9 -33
-16 -45 -16 -11 0 -20 -3 -20 -8 0 -8 -110 -40 -155 -44 -24 -2 -30 1 -35 22
-10 38 5 57 52 65 24 4 48 10 53 13 6 4 40 5 78 4 39 -1 67 2 67 8 0 5 7 10
15 10 9 0 15 9 15 24 0 13 -7 29 -15 36 -8 7 -15 19 -15 26 0 8 -4 14 -10 14
-5 0 -10 4 -10 9 0 10 77 31 114 31 14 0 26 -4 26 -9 0 -17 84 -20 117 -4 18
8 44 12 60 9 17 -3 35 0 47 9 20 15 20 15 0 30 -17 13 -13 14 53 15 l71 0 7
49 c10 77 -3 141 -31 151 -13 5 -24 16 -24 24 0 7 -10 16 -22 20 -33 8 -45 7
-28 -4 11 -7 9 -11 -13 -19 -35 -14 -69 -15 -48 -2 10 7 8 12 -9 24 -15 11
-18 16 -8 20 7 3 2 6 -12 6 -15 1 -30 5 -36 11 -6 6 -23 6 -48 -1 -34 -9 -42
-8 -67 10 -34 25 -27 24 -64 5z m-20 -44 c3 -5 1 -10 -4 -10 -6 0 -11 5 -11
10 0 6 2 10 4 10 3 0 8 -4 11 -10z m95 0 c0 -5 -2 -10 -4 -10 -3 0 -8 5 -11
10 -3 6 -1 10 4 10 6 0 11 -4 11 -10z m144 -81 c-31 -12 -39 -10 -19 5 11 8
24 12 29 8 5 -3 1 -9 -10 -13z m-77 -225 c-3 -3 -12 -4 -19 -1 -8 3 -5 6 6 6
11 1 17 -2 13 -5z"/>
<path d="M3092 477 c7 -8 23 -19 36 -26 20 -11 22 -9 22 14 0 22 -4 25 -36 25
-30 0 -33 -2 -22 -13z"/>
</g>
</svg>
